<?xml version="1.0" standalone="no"?>
<!DOCTYPE svg PUBLIC "-//W3C//DTD SVG 20010904//EN"
 "http://www.w3.org/TR/2001/REC-SVG-20010904/DTD/svg10.dtd">
<svg version="1.0" xmlns="http://www.w3.org/2000/svg"
 width="827.000000pt" height="302.000000pt" viewBox="0 0 827.000000 302.000000"
 preserveAspectRatio="xMidYMid meet">

<g transform="translate(0.000000,302.000000) scale(0.100000,-0.100000)"
fill="#000000" stroke="none">
<path d="M3657 2960 c-178 -28 -396 -106 -478 -171 -46 -36 -43 -29 -130 -388
l-61 -254 29 -23 c49 -40 179 -113 255 -145 415 -171 759 -223 1248 -189 294
21 478 59 621 129 l94 46 3 278 c3 324 5 315 -106 426 -108 107 -253 167 -466
190 -135 15 -210 14 -386 -8 -183 -23 -247 -27 -256 -18 -9 9 75 44 154 65 34
9 62 22 62 28 0 6 -26 17 -57 24 -72 15 -447 22 -526 10z"/>
<path d="M1495 2416 c-71 -29 -150 -62 -175 -74 -25 -11 -122 -52 -215 -90
-94 -38 -251 -103 -350 -144 -99 -42 -259 -108 -355 -147 -96 -40 -197 -83
-225 -95 -27 -13 -71 -31 -97 -41 l-48 -18 0 -142 0 -142 62 -23 c34 -12 94
-37 133 -55 38 -18 135 -58 215 -90 80 -31 150 -61 155 -65 6 -4 86 -37 179
-74 93 -37 176 -72 185 -77 9 -5 95 -41 191 -80 96 -40 244 -101 329 -136 85
-34 159 -63 163 -63 5 0 7 77 6 171 l-3 172 -90 37 c-49 20 -164 67 -255 103
-91 37 -178 74 -195 82 -16 8 -102 44 -190 79 -192 77 -377 154 -383 160 -4 5
30 21 113 51 28 10 55 22 60 26 6 4 80 35 165 69 85 34 173 70 195 80 22 10
109 46 194 80 84 34 161 66 170 71 9 5 61 27 116 48 l100 40 3 170 c2 134 0
171 -10 170 -7 0 -71 -24 -143 -53z"/>
<path d="M6592 2299 l3 -171 85 -34 c47 -18 99 -40 115 -48 17 -9 104 -45 195
-81 91 -36 173 -69 182 -75 9 -5 91 -39 182 -75 91 -35 174 -69 183 -75 10 -5
53 -23 96 -41 43 -17 76 -33 74 -35 -4 -5 -127 -56 -362 -151 -88 -36 -178
-73 -200 -83 -22 -10 -112 -47 -200 -83 -88 -36 -203 -83 -255 -105 l-95 -39
-3 -172 -2 -172 22 6 c13 4 86 33 163 65 77 32 219 90 315 129 96 39 183 75
192 81 9 5 86 37 170 71 84 33 171 70 193 80 37 17 201 86 462 192 l103 42 0
140 0 140 -88 34 c-48 19 -92 38 -97 42 -6 5 -80 36 -165 69 -85 34 -173 71
-195 81 -38 18 -147 64 -530 220 -93 38 -188 78 -210 88 -53 26 -317 131 -327
131 -5 0 -7 -77 -6 -171z"/>
<path d="M2735 2284 c-276 -68 -436 -150 -499 -258 -80 -137 31 -288 320 -435
156 -79 435 -172 674 -225 491 -108 989 -158 1585 -159 526 -1 828 43 1047
154 175 89 246 250 169 385 -52 90 -155 170 -331 259 -76 38 -295 125 -315
125 -3 0 -5 -38 -5 -85 0 -95 -14 -139 -54 -177 -71 -65 -287 -146 -476 -177
-349 -58 -737 -63 -1030 -15 -443 73 -938 302 -965 445 -4 22 1 63 13 112 l20
77 -27 -1 c-14 0 -71 -11 -126 -25z"/>
<path d="M3484 809 c-23 -30 -63 -138 -79 -213 -14 -61 -16 -106 -12 -200 6
-131 22 -205 65 -294 25 -51 31 -57 62 -60 125 -12 352 91 457 207 35 39 42
43 48 29 6 -16 22 -18 119 -18 76 0 116 4 125 13 10 10 20 4 49 -29 98 -110
329 -214 452 -202 31 3 37 9 62 58 47 95 63 180 63 335 0 155 -22 258 -72 344
l-25 44 -71 -7 c-143 -13 -285 -79 -394 -181 -32 -30 -58 -55 -60 -55 -1 0 -3
17 -5 38 l-3 37 -109 3 c-118 3 -138 -4 -136 -47 1 -14 2 -29 1 -32 -1 -4 -28
20 -62 52 -77 74 -153 120 -250 153 -95 32 -210 45 -225 25z"/>
</g>
</svg>
